<?xml version="1.0" encoding="utf-8"?>
<!-- Generator: Adobe Illustrator 16.0.0, SVG Export Plug-In . SVG Version: 6.00 Build 0)  -->
<!DOCTYPE svg PUBLIC "-//W3C//DTD SVG 1.1//EN" "http://www.w3.org/Graphics/SVG/1.1/DTD/svg11.dtd">
<svg version="1.1" id="Layer_1" xmlns="http://www.w3.org/2000/svg" xmlns:xlink="http://www.w3.org/1999/xlink" x="0px" y="0px"
	 width="1000px" height="800px" viewBox="0 0 1000 800" enable-background="new 0 0 1000 800" xml:space="preserve">
<path d="M540.648,329.032c-55.568-22.992-55.568-31.096-55.568-36.464c0-13.12,17.624-15.072,28.128-15.072
	c32.488,0,52.328,11.336,61.856,16.784l41.735,23.832l45.624-120.44l-29.912-17.536c-19.783-11.592-41.12-19.584-64.544-24.12
	V88.352h-122.56v75.44c-60.152,22.168-98.544,73.768-98.544,136.592c0,98.672,93.728,135.424,133.312,150.952
	c48.12,19.504,48.12,32.584,48.12,39.608c0,16.903-19.72,22.903-36.608,22.903c-24.712,0-51.327-7.903-71.207-21.168l-43.705-29.144
	l-43.832,122.392l25.24,18.04c21.336,15.24,51.032,26.664,82.656,32.36v69.912h123.216v-77.345
	c62.889-22.848,103.112-76.808,103.112-142.512C667.16,391.576,594.84,351.128,540.648,329.032z"/>
</svg>
