<?xml version="1.0" encoding="utf-8"?>
<!-- Generator: Adobe Illustrator 16.0.0, SVG Export Plug-In . SVG Version: 6.00 Build 0)  -->
<!DOCTYPE svg PUBLIC "-//W3C//DTD SVG 1.1//EN" "http://www.w3.org/Graphics/SVG/1.1/DTD/svg11.dtd">
<svg version="1.1" id="Layer_1" xmlns="http://www.w3.org/2000/svg" xmlns:xlink="http://www.w3.org/1999/xlink" x="0px" y="0px"
	 width="326px" height="77px" viewBox="0 0 326 77" enable-background="new 0 0 326 77" xml:space="preserve">
<g>
	<path d="M4.714,40.156l4.945-5.505c2.039,2.243,4.027,3.568,6.525,3.568c2.956,0,4.792-1.784,4.792-5.913V9.314h8.055v23.349
		c0,4.231-1.224,7.392-3.365,9.533c-2.191,2.192-5.403,3.313-9.278,3.313C10.831,45.51,7.161,43.062,4.714,40.156z"/>
	<path d="M38.509,9.314h7.852V45h-7.852V9.314z"/>
	<path d="M56.401,9.314h8.463l9.38,15.09l9.381-15.09h8.462V45h-7.8V21.702L74.244,36.945H74.04l-9.94-15.09V45h-7.698V9.314z"/>
	<path d="M118.18,9.314h7.851v14.121h14.479V9.314h7.851V45h-7.851V30.675H126.03V45h-7.851V9.314z"/>
	<path d="M170.276,9.06h7.239L192.81,45h-8.208l-3.263-8.004h-15.09L162.986,45h-8.004L170.276,9.06z M178.535,30.062l-4.741-11.572
		l-4.741,11.572H178.535z"/>
	<path d="M199.432,9.314h16.313c4.537,0,8.055,1.274,10.399,3.619c1.988,1.988,3.06,4.792,3.06,8.157v0.102
		c0,5.761-3.11,9.38-7.647,11.062L230.274,45h-9.177l-7.646-11.42h-0.102h-6.067V45h-7.851V9.314z M215.235,26.647
		c3.823,0,6.016-2.039,6.016-5.047v-0.102c0-3.365-2.345-5.098-6.169-5.098h-7.8v10.247H215.235z"/>
	<path d="M237.406,9.314h16.313c4.537,0,8.055,1.274,10.399,3.619c1.988,1.988,3.06,4.792,3.06,8.157v0.102
		c0,5.761-3.11,9.38-7.647,11.062L268.249,45h-9.177l-7.646-11.42h-0.102h-6.067V45h-7.851V9.314z M253.21,26.647
		c3.823,0,6.016-2.039,6.016-5.047v-0.102c0-3.365-2.345-5.098-6.169-5.098h-7.8v10.247H253.21z"/>
	<path d="M275.737,9.314h7.852V45h-7.852V9.314z"/>
	<path d="M291.183,39.801l4.64-5.558c3.212,2.651,6.576,4.333,10.654,4.333c3.212,0,5.149-1.273,5.149-3.364v-0.103
		c0-1.988-1.224-3.008-7.188-4.537c-7.188-1.835-11.827-3.823-11.827-10.909v-0.102c0-6.474,5.2-10.756,12.49-10.756
		c5.199,0,9.635,1.631,13.255,4.537l-4.079,5.914c-3.16-2.192-6.271-3.518-9.278-3.518s-4.588,1.376-4.588,3.11v0.102
		c0,2.345,1.529,3.11,7.698,4.69c7.239,1.886,11.317,4.486,11.317,10.706v0.102c0,7.086-5.404,11.062-13.102,11.062
		C300.92,45.51,295.465,43.623,291.183,39.801z"/>
</g>
<g>
	<path d="M65.438,57.081h8.324v1.789h-6.358v3.052h5.639v1.789h-5.639v4.553h-1.966V57.081z"/>
	<path d="M80.529,62.705v-0.033c0-3.146,2.429-5.783,5.863-5.783s5.831,2.604,5.831,5.752v0.031c0,3.148-2.428,5.783-5.863,5.783
		C82.926,68.455,80.529,65.852,80.529,62.705z M90.163,62.705v-0.033c0-2.172-1.582-3.978-3.803-3.978s-3.77,1.773-3.77,3.946v0.031
		c0,2.174,1.581,3.979,3.802,3.979S90.163,64.877,90.163,62.705z"/>
	<path d="M99.709,57.081h4.984c1.406,0,2.509,0.415,3.228,1.118c0.591,0.607,0.927,1.438,0.927,2.412v0.032
		c0,1.837-1.103,2.939-2.668,3.388l3.02,4.232h-2.316l-2.748-3.897h-0.032h-2.428v3.897h-1.966V57.081z M104.55,62.625
		c1.406,0,2.301-0.735,2.301-1.869v-0.032c0-1.198-0.862-1.854-2.316-1.854h-2.859v3.755H104.55z"/>
	<path d="M126.268,57.081h4.41c2.604,0,4.249,1.485,4.249,3.738v0.032c0,2.508-2.013,3.818-4.474,3.818h-2.22v3.594h-1.966V57.081z
		 M130.518,62.896c1.485,0,2.412-0.831,2.412-1.997v-0.032c0-1.311-0.942-1.997-2.412-1.997h-2.284v4.026H130.518z"/>
	<path d="M142.046,57.081h4.984c1.406,0,2.509,0.415,3.228,1.118c0.591,0.607,0.927,1.438,0.927,2.412v0.032
		c0,1.837-1.103,2.939-2.668,3.388l3.02,4.232h-2.316l-2.748-3.897h-0.032h-2.428v3.897h-1.966V57.081z M146.887,62.625
		c1.406,0,2.301-0.735,2.301-1.869v-0.032c0-1.198-0.862-1.854-2.316-1.854h-2.859v3.755H146.887z"/>
	<path d="M158.703,57.081h8.292v1.757h-6.326v2.908h5.607v1.758h-5.607v3.003h6.406v1.757h-8.372V57.081z"/>
	<path d="M173.763,66.635l1.183-1.406c1.07,0.927,2.141,1.454,3.53,1.454c1.215,0,1.981-0.56,1.981-1.405v-0.033
		c0-0.799-0.447-1.229-2.524-1.709c-2.38-0.575-3.722-1.277-3.722-3.339v-0.032c0-1.917,1.597-3.242,3.817-3.242
		c1.63,0,2.924,0.494,4.059,1.405l-1.055,1.485c-1.007-0.75-2.013-1.15-3.035-1.15c-1.15,0-1.821,0.592-1.821,1.326v0.032
		c0,0.862,0.511,1.246,2.651,1.757c2.365,0.576,3.595,1.422,3.595,3.275v0.032c0,2.093-1.646,3.339-3.994,3.339
		C176.719,68.424,175.105,67.833,173.763,66.635z"/>
	<path d="M189.957,57.081h1.965v11.183h-1.965V57.081z"/>
	<path d="M200.018,57.081h4.17c3.515,0,5.943,2.412,5.943,5.56v0.031c0,3.148-2.429,5.592-5.943,5.592h-4.17V57.081z
		 M204.188,66.475c2.349,0,3.882-1.582,3.882-3.77v-0.033c0-2.188-1.533-3.802-3.882-3.802h-2.204v7.604H204.188z"/>
	<path d="M217.616,57.081h8.292v1.757h-6.326v2.908h5.607v1.758h-5.607v3.003h6.406v1.757h-8.372V57.081z"/>
	<path d="M233.427,57.081h1.821l5.991,7.732v-7.732h1.934v11.183h-1.646l-6.167-7.955v7.955h-1.934V57.081z"/>
	<path d="M253.902,58.902h-3.547v-1.821h9.074v1.821h-3.546v9.361h-1.981V58.902z"/>
</g>
<line stroke="#fff" stroke-width="2" stroke-miterlimit="10" x1="270" y1="63" x2="318" y2="63"/>
<line stroke="#fff" stroke-width="2" stroke-miterlimit="10" x1="7" y1="63" x2="55" y2="63"/>
</svg>
