<?xml version="1.0" encoding="utf-8"?>
<!-- Generator: Adobe Illustrator 16.0.0, SVG Export Plug-In . SVG Version: 6.00 Build 0)  -->
<!DOCTYPE svg PUBLIC "-//W3C//DTD SVG 1.1//EN" "http://www.w3.org/Graphics/SVG/1.1/DTD/svg11.dtd">
<svg version="1.1" id="Layer_1" xmlns="http://www.w3.org/2000/svg" xmlns:xlink="http://www.w3.org/1999/xlink" x="0px" y="0px"
	 width="1000px" height="800px" viewBox="0 0 1000 800" enable-background="new 0 0 1000 800" xml:space="preserve">
<path d="M436.2,42c-108.8,0-156,90.4-156,181.6c0,120,72,174.4,72,214.4c0,16-10.4,35.2-40.8,51.2l-159.2,85.6
	c-56,30.4-28,147.2-28,147.2h623.2c0,0,27.199-117.6-28-147.2L560.2,490c-29.601-16-42.4-32.8-42.4-48
	c0-36.8,73.601-88.8,73.601-218.4C591.4,115.6,533.8,42,436.2,42z M803.4,98.8h-28c-28,0-28,0-28,28v56.8H690.6c-28,0-28,0-28,28v28
	c0,28,0,28,28,28H747.4v56.8c0,28,0,28,28,28h28c28,0,28,0,28-28v-56.8h56.8c28,0,28,0,28-28v-28c0-28,0-28-28-28h-56.8v-56.8
	C832.2,98.8,832.2,98.8,803.4,98.8z"/>
</svg>
