<svg xmlns="http://www.w3.org/2000/svg" class="hide"><defs><clipPath id="a"><path d="M0 10.012h1366.9v1110.9H0z"/></clipPath></defs><symbol id="contribute_icon" viewBox="0 0 1000 800"><path d="M540.648 329.032c-55.568-22.992-55.568-31.096-55.568-36.464 0-13.12 17.624-15.072 28.128-15.072 32.488 0 52.328 11.336 61.856 16.784l41.735 23.832 45.623-120.44-29.912-17.536c-19.782-11.592-41.12-19.584-64.543-24.12V88.352h-122.56v75.44c-60.152 22.168-98.544 73.768-98.544 136.592 0 98.672 93.728 135.424 133.312 150.952 48.12 19.504 48.12 32.584 48.12 39.608 0 16.903-19.72 22.903-36.608 22.903-24.712 0-51.327-7.903-71.207-21.168l-43.705-29.145-43.832 122.392 25.24 18.04c21.336 15.24 51.032 26.664 82.656 32.36v69.912h123.215v-77.346c62.89-22.848 103.112-76.808 103.112-142.512-.007-94.806-72.327-135.254-126.52-157.35z"/></symbol><symbol id="facebook_icon" viewBox="0 0 486.03677 1000"><path d="M124.074 1000V530.77H0V361.827h124.074v-144.3C124.074 104.13 197.364 0 366.244 0 434.618 0 485.18 6.555 485.18 6.555l-3.984 157.766s-51.564-.5-107.833-.5c-60.9 0-70.657 28.064-70.657 74.645v123.36h183.33l-7.976 168.946H302.706V1000H124.074"/></symbol><symbol id="jim_harris_logo" viewBox="0 0 326 77"><path d="M4.714 40.156L9.66 34.65c2.038 2.244 4.026 3.57 6.524 3.57 2.956 0 4.792-1.785 4.792-5.914V9.314h8.055v23.35c0 4.23-1.223 7.39-3.364 9.532-2.19 2.192-5.403 3.313-9.278 3.313-5.557 0-9.227-2.448-11.674-5.354zM38.51 9.314h7.85V45h-7.85V9.314zM56.4 9.314h8.464l9.38 15.09 9.38-15.09h8.463V45h-7.8V21.702L74.244 36.945h-.204l-9.94-15.09V45h-7.698V9.314zM118.18 9.314h7.85v14.12h14.48V9.315h7.85V45h-7.85V30.675h-14.48V45h-7.85V9.314zM170.276 9.06h7.24L192.81 45h-8.208l-3.263-8.004h-15.09L162.985 45h-8.004l15.294-35.94zm8.26 21.002l-4.742-11.572-4.74 11.572h9.48zM199.432 9.314h16.313c4.537 0 8.055 1.274 10.4 3.62 1.987 1.987 3.06 4.79 3.06 8.156v.102c0 5.76-3.11 9.38-7.648 11.062L230.274 45h-9.177l-7.646-11.42H207.283V45h-7.85V9.314zm15.803 17.333c3.823 0 6.016-2.04 6.016-5.047v-.102c0-3.365-2.344-5.098-6.168-5.098h-7.8v10.247h7.953zM237.406 9.314h16.313c4.536 0 8.054 1.274 10.398 3.62 1.988 1.987 3.06 4.79 3.06 8.156v.102c0 5.76-3.11 9.38-7.647 11.062L268.25 45h-9.178l-7.646-11.42H245.257V45h-7.85V9.314zm15.804 17.333c3.823 0 6.016-2.04 6.016-5.047v-.102c0-3.365-2.345-5.098-6.17-5.098h-7.8v10.247h7.954zM275.737 9.314h7.852V45h-7.853V9.314zM291.183 39.8l4.64-5.557c3.212 2.65 6.576 4.333 10.654 4.333 3.212 0 5.15-1.273 5.15-3.364v-.103c0-1.99-1.225-3.01-7.19-4.538-7.187-1.835-11.826-3.823-11.826-10.91v-.1c0-6.475 5.2-10.757 12.49-10.757 5.2 0 9.636 1.63 13.256 4.537l-4.08 5.914c-3.16-2.192-6.27-3.518-9.277-3.518s-4.59 1.376-4.59 3.11v.102c0 2.345 1.53 3.11 7.7 4.69 7.238 1.886 11.316 4.486 11.316 10.706v.102c0 7.086-5.404 11.062-13.102 11.062-5.404 0-10.86-1.887-15.14-5.71z"/><g><path d="M65.438 57.08h8.324v1.79h-6.358v3.052h5.64v1.79h-5.64v4.552h-1.966V57.08zM80.53 62.705v-.033c0-3.146 2.428-5.783 5.862-5.783s5.83 2.603 5.83 5.75v.032c0 3.148-2.427 5.783-5.862 5.783-3.434 0-5.83-2.603-5.83-5.75zm9.633 0v-.033c0-2.172-1.582-3.978-3.803-3.978s-3.77 1.773-3.77 3.946v.03c0 2.175 1.58 3.98 3.802 3.98s3.77-1.773 3.77-3.945zM99.71 57.08h4.983c1.406 0 2.51.416 3.228 1.12.592.606.928 1.437.928 2.41v.033c0 1.837-1.103 2.94-2.668 3.388l3.02 4.233h-2.316l-2.748-3.897h-2.46v3.897H99.71V57.08zm4.84 5.545c1.406 0 2.3-.735 2.3-1.87v-.03c0-1.2-.86-1.855-2.315-1.855h-2.86v3.755h2.875zM126.268 57.08h4.41c2.604 0 4.25 1.486 4.25 3.74v.03c0 2.51-2.014 3.82-4.475 3.82h-2.22v3.593h-1.966V57.08zm4.25 5.816c1.485 0 2.412-.83 2.412-1.997v-.033c0-1.31-.942-1.997-2.412-1.997h-2.284v4.026h2.284zM142.046 57.08h4.984c1.406 0 2.51.416 3.228 1.12.59.606.927 1.437.927 2.41v.033c0 1.837-1.103 2.94-2.668 3.388l3.02 4.233h-2.316l-2.747-3.897h-2.459v3.897h-1.966V57.08zm4.84 5.545c1.407 0 2.302-.735 2.302-1.87v-.03c0-1.2-.862-1.855-2.316-1.855h-2.86v3.755h2.875zM158.703 57.08h8.292v1.758h-6.326v2.908h5.606v1.758h-5.607v3.003h6.405v1.757h-8.372V57.08zM173.763 66.635l1.183-1.406c1.07.926 2.14 1.453 3.53 1.453 1.215 0 1.98-.56 1.98-1.405v-.033c0-.8-.446-1.23-2.523-1.71-2.38-.574-3.722-1.276-3.722-3.338v-.032c0-1.917 1.598-3.242 3.818-3.242 1.63 0 2.924.494 4.06 1.405l-1.056 1.485c-1.007-.75-2.013-1.15-3.035-1.15-1.15 0-1.82.592-1.82 1.326v.03c0 .863.51 1.247 2.65 1.758 2.365.576 3.595 1.422 3.595 3.275v.032c0 2.093-1.646 3.34-3.994 3.34a6.89 6.89 0 0 1-4.665-1.79zM189.957 57.08h1.965v11.184h-1.965V57.08zM200.018 57.08h4.17c3.515 0 5.943 2.413 5.943 5.56v.032c0 3.148-2.428 5.592-5.942 5.592h-4.17V57.08zm4.17 9.395c2.35 0 3.882-1.582 3.882-3.77v-.033c0-2.188-1.533-3.802-3.882-3.802h-2.204v7.604h2.204zM217.616 57.08h8.292v1.758h-6.326v2.908h5.607v1.758h-5.608v3.003h6.406v1.757h-8.372V57.08zM233.427 57.08h1.82l5.992 7.733V57.08h1.933v11.184h-1.646l-6.167-7.955v7.954h-1.934V57.08zM253.902 58.902h-3.547v-1.82h9.074v1.82h-3.547v9.36h-1.98v-9.36z"/></g><path stroke="#fff" stroke-width="2" stroke-miterlimit="10" d="M270 63h48M7 63h48"/></symbol><symbol id="signup_icon" viewBox="0 0 1000 800"><path d="M436.2 42c-108.8 0-156 90.4-156 181.6 0 120 72 174.4 72 214.4 0 16-10.4 35.2-40.8 51.2l-159.2 85.6c-56 30.4-28 147.2-28 147.2h623.2s27.2-117.6-28-147.2L560.2 490c-29.6-16-42.4-32.8-42.4-48 0-36.8 73.6-88.8 73.6-218.4 0-108-57.6-181.6-155.2-181.6zm367.2 56.8h-28c-28 0-28 0-28 28v56.8h-56.8c-28 0-28 0-28 28v28c0 28 0 28 28 28h56.8v56.8c0 28 0 28 28 28h28c28 0 28 0 28-28v-56.8h56.8c28 0 28 0 28-28v-28c0-28 0-28-28-28h-56.8v-56.8c.8-28 .8-28-28-28z"/></symbol><symbol id="twitter_icon" viewBox="0 0 182.66667 150.66667"><g clip-path="url(#a)" transform="matrix(.1333 0 0 -.1333 0 150.67)"><path d="M1366.9 989.39c-50.27-22.31-104.33-37.387-161.05-44.18 57.89 34.723 102.34 89.68 123.28 155.15-54.18-32.15-114.18-55.47-178.09-68.04-51.13 54.49-124.02 88.55-204.68 88.55-154.89 0-280.43-125.55-280.43-280.43 0-21.988 2.457-43.398 7.258-63.91-233.08 11.68-439.72 123.36-578.04 293.01-24.14-41.4-37.97-89.567-37.97-140.97 0-97.308 49.49-183.13 124.76-233.44-45.968 1.437-89.217 14.058-127.03 35.078-.042-1.18-.042-2.348-.042-3.52 0-135.9 96.68-249.22 224.96-275-23.512-6.41-48.28-9.8-73.86-9.8-18.09 0-35.628 1.71-52.78 5 35.71-111.41 139.26-192.5 262-194.77-96.06-75.23-216.96-120.04-348.36-120.04-22.622 0-44.962 1.332-66.92 3.91 124.16-79.568 271.55-125.98 429.94-125.98 515.82 0 797.86 427.31 797.86 797.93 0 12.153-.28 24.223-.79 36.25 54.77 39.57 102.31 88.95 139.93 145.2"/></g></symbol><symbol id="volunteer_icon" viewBox="0 0 960 560"><path d="M418.904 216.02l77.067 72.693L648.35 117.068l36.774 32.396-184.767 221.564-118.232-118.216z"/><path d="M305.84 122.142h309.736l-49.778 55.31H361.15v210.174h210.18v-71.903l55.312-66.377v193.592H305.84z"/></symbol></svg>